<svg xmlns="http://www.w3.org/2000/svg" xmlns:xlink="http://www.w3.org/1999/xlink" width="1280" zoomAndPan="magnify" viewBox="0 0 960 479.999983" height="640" preserveAspectRatio="xMidYMid meet" version="1.2"><defs/><g id="65e72c9925"><g style="fill:#e4007f;fill-opacity:1;"><g transform="translate(24.259174, 251.23058)"><path style="stroke:none" d="M 47.09375 -38.546875 C 50.925781 -36.753906 53.921875 -34.414062 56.078125 -31.53125 C 58.234375 -28.65625 59.3125 -25.332031 59.3125 -21.5625 C 59.3125 -14.144531 56.875 -8.695312 52 -5.21875 C 47.132812 -1.738281 41.0625 0 33.78125 0 L 9.4375 0 L 9.4375 -73.109375 L 30.890625 -73.109375 C 38.640625 -73.109375 44.734375 -71.535156 49.171875 -68.390625 C 53.609375 -65.242188 55.828125 -60.691406 55.828125 -54.734375 C 55.828125 -51.097656 55.066406 -47.90625 53.546875 -45.15625 C 52.023438 -42.40625 49.875 -40.203125 47.09375 -38.546875 Z M 23.84375 -43.21875 L 32.578125 -43.21875 C 35.234375 -43.21875 37.285156 -44.023438 38.734375 -45.640625 C 40.191406 -47.265625 40.921875 -49.269531 40.921875 -51.65625 C 40.921875 -54.101562 40.09375 -55.972656 38.4375 -57.265625 C 36.789062 -58.554688 34.507812 -59.203125 31.59375 -59.203125 L 23.84375 -59.203125 Z M 33.078125 -13.40625 C 36.453125 -13.40625 39.179688 -14.082031 41.265625 -15.4375 C 43.359375 -16.800781 44.40625 -18.84375 44.40625 -21.5625 C 44.40625 -26.726562 40.300781 -29.3125 32.09375 -29.3125 L 23.84375 -29.3125 L 23.84375 -13.40625 Z M 33.078125 -13.40625 "/></g></g><g style="fill:#e4007f;fill-opacity:1;"><g transform="translate(88.52596, 251.23058)"><path style="stroke:none" d="M 23.84375 -73.109375 L 23.84375 -13.90625 L 58.21875 -13.90625 L 58.21875 0 L 9.4375 0 L 9.4375 -73.109375 Z M 23.84375 -73.109375 "/></g></g><g style="fill:#e4007f;fill-opacity:1;"><g transform="translate(152.196769, 251.23058)"><path style="stroke:none" d="M 22.359375 -27.015625 C 22.359375 -24.703125 23.050781 -22.484375 24.4375 -20.359375 C 25.832031 -18.242188 27.6875 -16.523438 30 -15.203125 C 32.320312 -13.878906 34.804688 -13.21875 37.453125 -13.21875 C 40.296875 -13.21875 42.910156 -13.878906 45.296875 -15.203125 C 47.679688 -16.523438 49.550781 -18.242188 50.90625 -20.359375 C 52.269531 -22.484375 52.953125 -24.703125 52.953125 -27.015625 L 52.953125 -73.109375 L 67.15625 -73.109375 L 67.15625 -26.71875 C 67.15625 -21.488281 65.828125 -16.769531 63.171875 -12.5625 C 60.523438 -8.363281 56.929688 -5.085938 52.390625 -2.734375 C 47.859375 -0.378906 42.878906 0.796875 37.453125 0.796875 C 32.023438 0.796875 27.054688 -0.378906 22.546875 -2.734375 C 18.046875 -5.085938 14.488281 -8.363281 11.875 -12.5625 C 9.257812 -16.769531 7.953125 -21.488281 7.953125 -26.71875 L 7.953125 -73.109375 L 22.359375 -73.109375 Z M 22.359375 -27.015625 "/></g></g><g style="fill:#e4007f;fill-opacity:1;"><g transform="translate(227.290568, 251.23058)"><path style="stroke:none" d="M 48.484375 -55.4375 C 42.117188 -58.945312 36.585938 -60.703125 31.890625 -60.703125 C 28.710938 -60.703125 26.242188 -60.070312 24.484375 -58.8125 C 22.734375 -57.550781 21.859375 -55.664062 21.859375 -53.15625 C 21.859375 -50.832031 23.128906 -48.789062 25.671875 -47.03125 C 28.222656 -45.28125 31.617188 -43.609375 35.859375 -42.015625 C 39.304688 -40.765625 42.253906 -39.328125 44.703125 -37.703125 C 47.148438 -36.078125 49.1875 -33.835938 50.8125 -30.984375 C 52.4375 -28.140625 53.25 -24.535156 53.25 -20.171875 C 53.25 -16.390625 52.269531 -12.894531 50.3125 -9.6875 C 48.363281 -6.476562 45.5 -3.925781 41.71875 -2.03125 C 37.945312 -0.144531 33.445312 0.796875 28.21875 0.796875 C 23.84375 0.796875 19.503906 0.148438 15.203125 -1.140625 C 10.898438 -2.429688 6.890625 -4.398438 3.171875 -7.046875 L 9.53125 -18.28125 C 12.050781 -16.425781 14.929688 -14.898438 18.171875 -13.703125 C 21.421875 -12.515625 24.335938 -11.921875 26.921875 -11.921875 C 29.960938 -11.921875 32.609375 -12.566406 34.859375 -13.859375 C 37.117188 -15.148438 38.25 -17.253906 38.25 -20.171875 C 38.25 -23.941406 34.707031 -27.21875 27.625 -30 C 23.445312 -31.65625 19.96875 -33.242188 17.1875 -34.765625 C 14.40625 -36.296875 12.003906 -38.484375 9.984375 -41.328125 C 7.960938 -44.171875 6.953125 -47.75 6.953125 -52.0625 C 6.953125 -58.351562 9.019531 -63.414062 13.15625 -67.25 C 17.300781 -71.09375 22.816406 -73.179688 29.703125 -73.515625 C 35.128906 -73.515625 39.664062 -72.898438 43.3125 -71.671875 C 46.957031 -70.453125 50.5 -68.71875 53.9375 -66.46875 Z M 48.484375 -55.4375 "/></g></g><g style="fill:#e4007f;fill-opacity:1;"><g transform="translate(285.200216, 251.23058)"><path style="stroke:none" d="M 70.9375 0 L 56.53125 0 L 56.53125 -29.703125 L 23.84375 -29.703125 L 23.84375 0 L 9.4375 0 L 9.4375 -73.109375 L 23.84375 -73.109375 L 23.84375 -43.609375 L 56.53125 -43.609375 L 56.53125 -73.109375 L 70.9375 -73.109375 Z M 70.9375 0 "/></g></g><g style="fill:#e4007f;fill-opacity:1;"><g transform="translate(365.558513, 251.23058)"><path style="stroke:none" d=""/></g></g><g style="fill:#e4007f;fill-opacity:1;"><g transform="translate(397.840924, 251.23058)"><path style="stroke:none" d="M 18.375 -61.984375 L 24.53125 -48.578125 L 16.09375 -48.578125 L 2.984375 -61.984375 Z M 18.375 -61.984375 "/></g></g><g style="fill:#e4007f;fill-opacity:1;"><g transform="translate(429.328674, 251.23058)"><path style="stroke:none" d="M 75.296875 -73.109375 L 75.296875 2.984375 L 74.90625 2.984375 L 23.75 -43.21875 L 24.046875 0 L 9.4375 0 L 9.4375 -76 L 10.03125 -76 L 61.09375 -29.109375 L 60.796875 -73.109375 Z M 75.296875 -73.109375 "/></g></g><g style="fill:#e4007f;fill-opacity:1;"><g transform="translate(514.057552, 251.23058)"><path style="stroke:none" d=""/></g></g><g style="fill:#e4007f;fill-opacity:1;"><g transform="translate(546.345145, 251.23058)"><path style="stroke:none" d="M 47.09375 -38.546875 C 50.925781 -36.753906 53.921875 -34.414062 56.078125 -31.53125 C 58.234375 -28.65625 59.3125 -25.332031 59.3125 -21.5625 C 59.3125 -14.144531 56.875 -8.695312 52 -5.21875 C 47.132812 -1.738281 41.0625 0 33.78125 0 L 9.4375 0 L 9.4375 -73.109375 L 30.890625 -73.109375 C 38.640625 -73.109375 44.734375 -71.535156 49.171875 -68.390625 C 53.609375 -65.242188 55.828125 -60.691406 55.828125 -54.734375 C 55.828125 -51.097656 55.066406 -47.90625 53.546875 -45.15625 C 52.023438 -42.40625 49.875 -40.203125 47.09375 -38.546875 Z M 23.84375 -43.21875 L 32.578125 -43.21875 C 35.234375 -43.21875 37.285156 -44.023438 38.734375 -45.640625 C 40.191406 -47.265625 40.921875 -49.269531 40.921875 -51.65625 C 40.921875 -54.101562 40.09375 -55.972656 38.4375 -57.265625 C 36.789062 -58.554688 34.507812 -59.203125 31.59375 -59.203125 L 23.84375 -59.203125 Z M 33.078125 -13.40625 C 36.453125 -13.40625 39.179688 -14.082031 41.265625 -15.4375 C 43.359375 -16.800781 44.40625 -18.84375 44.40625 -21.5625 C 44.40625 -26.726562 40.300781 -29.3125 32.09375 -29.3125 L 23.84375 -29.3125 L 23.84375 -13.40625 Z M 33.078125 -13.40625 "/></g></g><g style="fill:#e4007f;fill-opacity:1;"><g transform="translate(610.611931, 251.23058)"><path style="stroke:none" d="M 23.84375 -73.109375 L 23.84375 -13.90625 L 58.21875 -13.90625 L 58.21875 0 L 9.4375 0 L 9.4375 -73.109375 Z M 23.84375 -73.109375 "/></g></g><g style="fill:#e4007f;fill-opacity:1;"><g transform="translate(672.295972, 251.23058)"><path style="stroke:none" d="M 4.96875 -36.453125 C 4.96875 -43.078125 6.640625 -49.269531 9.984375 -55.03125 C 13.328125 -60.789062 17.863281 -65.375 23.59375 -68.78125 C 29.320312 -72.195312 35.53125 -73.90625 42.21875 -73.90625 C 48.90625 -73.90625 55.113281 -72.195312 60.84375 -68.78125 C 66.570312 -65.375 71.140625 -60.789062 74.546875 -55.03125 C 77.960938 -49.269531 79.671875 -43.078125 79.671875 -36.453125 C 79.671875 -29.703125 77.960938 -23.476562 74.546875 -17.78125 C 71.140625 -12.082031 66.570312 -7.5625 60.84375 -4.21875 C 55.113281 -0.875 48.90625 0.796875 42.21875 0.796875 C 35.46875 0.796875 29.242188 -0.875 23.546875 -4.21875 C 17.847656 -7.5625 13.328125 -12.082031 9.984375 -17.78125 C 6.640625 -23.476562 4.96875 -29.703125 4.96875 -36.453125 Z M 19.875 -36.453125 C 19.875 -32.210938 20.878906 -28.304688 22.890625 -24.734375 C 24.910156 -21.160156 27.660156 -18.328125 31.140625 -16.234375 C 34.617188 -14.148438 38.476562 -13.109375 42.71875 -13.109375 C 46.820312 -13.109375 50.5625 -14.148438 53.9375 -16.234375 C 57.320312 -18.328125 59.972656 -21.144531 61.890625 -24.6875 C 63.804688 -28.226562 64.765625 -32.148438 64.765625 -36.453125 C 64.765625 -40.828125 63.769531 -44.800781 61.78125 -48.375 C 59.800781 -51.957031 57.101562 -54.789062 53.6875 -56.875 C 50.28125 -58.957031 46.492188 -60 42.328125 -60 C 38.148438 -60 34.351562 -58.957031 30.9375 -56.875 C 27.53125 -54.789062 24.832031 -51.957031 22.84375 -48.375 C 20.863281 -44.800781 19.875 -40.828125 19.875 -36.453125 Z M 19.875 -36.453125 "/></g></g><g style="fill:#e4007f;fill-opacity:1;"><g transform="translate(756.925498, 251.23058)"><path style="stroke:none" d="M 4.96875 -36.453125 C 4.96875 -43.078125 6.640625 -49.269531 9.984375 -55.03125 C 13.328125 -60.789062 17.863281 -65.375 23.59375 -68.78125 C 29.320312 -72.195312 35.53125 -73.90625 42.21875 -73.90625 C 48.90625 -73.90625 55.113281 -72.195312 60.84375 -68.78125 C 66.570312 -65.375 71.140625 -60.789062 74.546875 -55.03125 C 77.960938 -49.269531 79.671875 -43.078125 79.671875 -36.453125 C 79.671875 -29.703125 77.960938 -23.476562 74.546875 -17.78125 C 71.140625 -12.082031 66.570312 -7.5625 60.84375 -4.21875 C 55.113281 -0.875 48.90625 0.796875 42.21875 0.796875 C 35.46875 0.796875 29.242188 -0.875 23.546875 -4.21875 C 17.847656 -7.5625 13.328125 -12.082031 9.984375 -17.78125 C 6.640625 -23.476562 4.96875 -29.703125 4.96875 -36.453125 Z M 19.875 -36.453125 C 19.875 -32.210938 20.878906 -28.304688 22.890625 -24.734375 C 24.910156 -21.160156 27.660156 -18.328125 31.140625 -16.234375 C 34.617188 -14.148438 38.476562 -13.109375 42.71875 -13.109375 C 46.820312 -13.109375 50.5625 -14.148438 53.9375 -16.234375 C 57.320312 -18.328125 59.972656 -21.144531 61.890625 -24.6875 C 63.804688 -28.226562 64.765625 -32.148438 64.765625 -36.453125 C 64.765625 -40.828125 63.769531 -44.800781 61.78125 -48.375 C 59.800781 -51.957031 57.101562 -54.789062 53.6875 -56.875 C 50.28125 -58.957031 46.492188 -60 42.328125 -60 C 38.148438 -60 34.351562 -58.957031 30.9375 -56.875 C 27.53125 -54.789062 24.832031 -51.957031 22.84375 -48.375 C 20.863281 -44.800781 19.875 -40.828125 19.875 -36.453125 Z M 19.875 -36.453125 "/></g></g><g style="fill:#e4007f;fill-opacity:1;"><g transform="translate(841.555023, 251.23058)"><path style="stroke:none" d="M 84.734375 -76.09375 L 84.734375 0 L 70.328125 0 L 70.328125 -34.875 L 46.5 -1 L 46.296875 -1 L 23.34375 -32.6875 L 23.34375 0 L 9.4375 0 L 9.4375 -76.09375 L 9.53125 -76.09375 L 46.59375 -23.546875 L 84.546875 -76.09375 Z M 84.734375 -76.09375 "/></g></g><g style="fill:#5271ff;fill-opacity:1;"><g transform="translate(383.963498, 297.330391)"><path style="stroke:none" d="M 37.546875 -34.03125 L 37.546875 0 L 33.171875 0 L 33.171875 -21.359375 L 21.03125 -4.15625 L 20.9375 -4.15625 L 9.03125 -20.765625 L 9.03125 0 L 4.75 0 L 4.75 -34.03125 L 4.796875 -34.03125 L 21.03125 -11.046875 L 37.5 -34.03125 Z M 37.546875 -34.03125 "/></g></g><g style="fill:#5271ff;fill-opacity:1;"><g transform="translate(426.261615, 297.330391)"><path style="stroke:none" d="M 23.09375 -18.890625 L 23.09375 0 L 18.84375 0 L 18.84375 -3.109375 C 18.175781 -2.222656 17.203125 -1.40625 15.921875 -0.65625 C 14.640625 0.0820312 13.195312 0.453125 11.59375 0.453125 C 9.789062 0.453125 8.164062 0.0664062 6.71875 -0.703125 C 5.28125 -1.484375 4.140625 -2.617188 3.296875 -4.109375 C 2.460938 -5.597656 2.046875 -7.375 2.046875 -9.4375 C 2.046875 -11.507812 2.476562 -13.3125 3.34375 -14.84375 C 4.21875 -16.382812 5.390625 -17.570312 6.859375 -18.40625 C 8.335938 -19.25 9.972656 -19.671875 11.765625 -19.671875 C 13.378906 -19.671875 14.78125 -19.316406 15.96875 -18.609375 C 17.15625 -17.910156 18.113281 -17 18.84375 -15.875 L 19.15625 -18.890625 Z M 12.734375 -3.0625 C 14.285156 -3.0625 15.613281 -3.492188 16.71875 -4.359375 C 17.832031 -5.222656 18.539062 -6.398438 18.84375 -7.890625 L 18.84375 -11.640625 C 18.476562 -12.972656 17.71875 -14.054688 16.5625 -14.890625 C 15.40625 -15.734375 14.082031 -16.15625 12.59375 -16.15625 C 11.46875 -16.15625 10.425781 -15.878906 9.46875 -15.328125 C 8.507812 -14.785156 7.75 -14.019531 7.1875 -13.03125 C 6.625 -12.039062 6.34375 -10.921875 6.34375 -9.671875 C 6.34375 -8.453125 6.628906 -7.34375 7.203125 -6.34375 C 7.785156 -5.34375 8.5625 -4.546875 9.53125 -3.953125 C 10.507812 -3.359375 11.578125 -3.0625 12.734375 -3.0625 Z M 12.734375 -3.0625 "/></g></g><g style="fill:#5271ff;fill-opacity:1;"><g transform="translate(453.04586, 297.330391)"><path style="stroke:none" d="M 7.796875 -14.421875 C 8.285156 -15.453125 8.976562 -16.363281 9.875 -17.15625 C 10.769531 -17.945312 11.71875 -18.554688 12.71875 -18.984375 C 13.726562 -19.410156 14.613281 -19.640625 15.375 -19.671875 L 15.1875 -15.421875 C 13.820312 -15.484375 12.582031 -15.207031 11.46875 -14.59375 C 10.363281 -13.988281 9.5 -13.144531 8.875 -12.0625 C 8.25 -10.988281 7.9375 -9.84375 7.9375 -8.625 L 7.9375 0 L 3.703125 0 L 3.703125 -18.890625 L 7.484375 -18.890625 Z M 7.796875 -14.421875 "/></g></g><g style="fill:#5271ff;fill-opacity:1;"><g transform="translate(470.20238, 297.330391)"><path style="stroke:none" d="M 7.9375 -18.890625 L 7.9375 0 L 3.703125 0 L 3.703125 -18.890625 Z M 3.375 -25.6875 C 3.375 -26.363281 3.628906 -26.925781 4.140625 -27.375 C 4.660156 -27.832031 5.253906 -28.0625 5.921875 -28.0625 C 6.597656 -28.0625 7.1875 -27.832031 7.6875 -27.375 C 8.1875 -26.925781 8.4375 -26.363281 8.4375 -25.6875 C 8.4375 -25.019531 8.1875 -24.457031 7.6875 -24 C 7.1875 -23.539062 6.597656 -23.3125 5.921875 -23.3125 C 5.253906 -23.3125 4.660156 -23.539062 4.140625 -24 C 3.628906 -24.457031 3.375 -25.019531 3.375 -25.6875 Z M 3.375 -25.6875 "/></g></g><g style="fill:#5271ff;fill-opacity:1;"><g transform="translate(481.837786, 297.330391)"><path style="stroke:none" d="M 19.03125 -1.78125 C 18.175781 -1.082031 17.160156 -0.535156 15.984375 -0.140625 C 14.816406 0.253906 13.625 0.453125 12.40625 0.453125 C 10.375 0.453125 8.570312 0.046875 7 -0.765625 C 5.4375 -1.585938 4.21875 -2.753906 3.34375 -4.265625 C 2.476562 -5.773438 2.046875 -7.515625 2.046875 -9.484375 C 2.046875 -11.429688 2.503906 -13.15625 3.421875 -14.65625 C 4.335938 -16.164062 5.554688 -17.332031 7.078125 -18.15625 C 8.597656 -18.976562 10.238281 -19.390625 12 -19.390625 C 14.882812 -19.390625 17.269531 -18.597656 19.15625 -17.015625 L 17.015625 -14.234375 C 16.410156 -14.691406 15.710938 -15.078125 14.921875 -15.390625 C 14.128906 -15.710938 13.273438 -15.875 12.359375 -15.875 C 11.234375 -15.875 10.207031 -15.59375 9.28125 -15.03125 C 8.351562 -14.46875 7.625 -13.695312 7.09375 -12.71875 C 6.5625 -11.75 6.296875 -10.671875 6.296875 -9.484375 C 6.296875 -8.296875 6.578125 -7.21875 7.140625 -6.25 C 7.703125 -5.28125 8.46875 -4.503906 9.4375 -3.921875 C 10.414062 -3.347656 11.53125 -3.0625 12.78125 -3.0625 C 14.332031 -3.0625 15.679688 -3.515625 16.828125 -4.421875 Z M 19.03125 -1.78125 "/></g></g><g style="fill:#5271ff;fill-opacity:1;"><g transform="translate(502.644627, 297.330391)"><path style="stroke:none" d="M 15.421875 -19.625 C 17.179688 -19.625 18.640625 -19.097656 19.796875 -18.046875 C 20.953125 -16.992188 21.546875 -15.632812 21.578125 -13.96875 L 21.578125 0 L 17.296875 0 L 17.296875 -12.5 C 17.234375 -13.5625 16.910156 -14.394531 16.328125 -15 C 15.753906 -15.613281 14.890625 -15.9375 13.734375 -15.96875 C 12.640625 -15.96875 11.648438 -15.660156 10.765625 -15.046875 C 9.878906 -14.441406 9.1875 -13.59375 8.6875 -12.5 C 8.1875 -11.40625 7.9375 -10.1875 7.9375 -8.84375 L 7.9375 0 L 3.703125 0 L 3.703125 -35.359375 L 7.84375 -35.359375 L 7.84375 -15.46875 C 8.539062 -16.71875 9.550781 -17.722656 10.875 -18.484375 C 12.195312 -19.242188 13.710938 -19.625 15.421875 -19.625 Z M 15.421875 -19.625 "/></g></g><g style="fill:#5271ff;fill-opacity:1;"><g transform="translate(527.877485, 297.330391)"><path style="stroke:none" d="M 2.046875 -9.625 C 2.046875 -11.476562 2.492188 -13.171875 3.390625 -14.703125 C 4.296875 -16.242188 5.546875 -17.457031 7.140625 -18.34375 C 8.734375 -19.226562 10.535156 -19.671875 12.546875 -19.671875 C 14.554688 -19.671875 16.34375 -19.226562 17.90625 -18.34375 C 19.46875 -17.457031 20.679688 -16.253906 21.546875 -14.734375 C 22.421875 -13.210938 22.859375 -11.507812 22.859375 -9.625 C 22.859375 -7.738281 22.421875 -6.023438 21.546875 -4.484375 C 20.679688 -2.953125 19.457031 -1.742188 17.875 -0.859375 C 16.300781 0.015625 14.492188 0.453125 12.453125 0.453125 C 10.472656 0.453125 8.691406 0.0351562 7.109375 -0.796875 C 5.535156 -1.628906 4.296875 -2.804688 3.390625 -4.328125 C 2.492188 -5.847656 2.046875 -7.613281 2.046875 -9.625 Z M 6.34375 -9.578125 C 6.34375 -8.390625 6.609375 -7.296875 7.140625 -6.296875 C 7.671875 -5.296875 8.398438 -4.503906 9.328125 -3.921875 C 10.253906 -3.347656 11.28125 -3.0625 12.40625 -3.0625 C 14.175781 -3.0625 15.640625 -3.679688 16.796875 -4.921875 C 17.953125 -6.171875 18.53125 -7.722656 18.53125 -9.578125 C 18.53125 -11.429688 17.953125 -12.988281 16.796875 -14.25 C 15.640625 -15.519531 14.175781 -16.15625 12.40625 -16.15625 C 11.25 -16.15625 10.210938 -15.859375 9.296875 -15.265625 C 8.390625 -14.671875 7.671875 -13.867188 7.140625 -12.859375 C 6.609375 -11.859375 6.34375 -10.765625 6.34375 -9.578125 Z M 6.34375 -9.578125 "/></g></g><g style="fill:#5271ff;fill-opacity:1;"><g transform="translate(552.745313, 297.330391)"><path style="stroke:none" d="M 7.9375 -18.890625 L 7.9375 0 L 3.703125 0 L 3.703125 -18.890625 Z M 3.375 -25.6875 C 3.375 -26.363281 3.628906 -26.925781 4.140625 -27.375 C 4.660156 -27.832031 5.253906 -28.0625 5.921875 -28.0625 C 6.597656 -28.0625 7.1875 -27.832031 7.6875 -27.375 C 8.1875 -26.925781 8.4375 -26.363281 8.4375 -25.6875 C 8.4375 -25.019531 8.1875 -24.457031 7.6875 -24 C 7.1875 -23.539062 6.597656 -23.3125 5.921875 -23.3125 C 5.253906 -23.3125 4.660156 -23.539062 4.140625 -24 C 3.628906 -24.457031 3.375 -25.019531 3.375 -25.6875 Z M 3.375 -25.6875 "/></g></g><g style="fill:#5271ff;fill-opacity:1;"><g transform="translate(564.380712, 297.330391)"><path style="stroke:none" d="M 7.9375 -18.890625 L 7.9375 0 L 3.703125 0 L 3.703125 -18.890625 Z M 3.375 -25.6875 C 3.375 -26.363281 3.628906 -26.925781 4.140625 -27.375 C 4.660156 -27.832031 5.253906 -28.0625 5.921875 -28.0625 C 6.597656 -28.0625 7.1875 -27.832031 7.6875 -27.375 C 8.1875 -26.925781 8.4375 -26.363281 8.4375 -25.6875 C 8.4375 -25.019531 8.1875 -24.457031 7.6875 -24 C 7.1875 -23.539062 6.597656 -23.3125 5.921875 -23.3125 C 5.253906 -23.3125 4.660156 -23.539062 4.140625 -24 C 3.628906 -24.457031 3.375 -25.019531 3.375 -25.6875 Z M 3.375 -25.6875 "/></g></g></g></svg>