<svg xmlns="http://www.w3.org/2000/svg" xmlns:xlink="http://www.w3.org/1999/xlink" width="1280" zoomAndPan="magnify" viewBox="0 0 960 479.999983" height="640" preserveAspectRatio="xMidYMid meet" version="1.2"><defs/><g id="584b7b3158"><g style="fill:#e4007f;fill-opacity:1;"><g transform="translate(23.635115, 264.593154)"><path style="stroke:none" d="M 52.265625 -46 C 57.328125 -44.039062 61.332031 -41.238281 64.28125 -37.59375 C 67.226562 -33.957031 68.703125 -29.726562 68.703125 -24.90625 C 68.703125 -19.257812 67.332031 -14.578125 64.59375 -10.859375 C 61.851562 -7.140625 58.253906 -4.398438 53.796875 -2.640625 C 49.335938 -0.878906 44.445312 0 39.125 0 L 12.765625 0 L 12.765625 -88.6875 L 35.703125 -88.6875 C 44.773438 -88.6875 51.804688 -86.828125 56.796875 -83.109375 C 61.785156 -79.390625 64.28125 -73.804688 64.28125 -66.359375 C 64.28125 -61.703125 63.238281 -57.632812 61.15625 -54.15625 C 59.070312 -50.6875 56.109375 -47.96875 52.265625 -46 Z M 24.65625 -49.921875 L 38.15625 -49.921875 C 42.726562 -49.921875 46.179688 -51.226562 48.515625 -53.84375 C 50.847656 -56.46875 52.015625 -59.820312 52.015625 -63.90625 C 52.015625 -68.40625 50.625 -71.757812 47.84375 -73.96875 C 45.0625 -76.175781 41.175781 -77.28125 36.1875 -77.28125 L 24.65625 -77.28125 Z M 38.640625 -11.046875 C 43.796875 -11.046875 48.046875 -12.207031 51.390625 -14.53125 C 54.742188 -16.863281 56.421875 -20.28125 56.421875 -24.78125 C 56.421875 -29.4375 54.601562 -32.867188 50.96875 -35.078125 C 47.332031 -37.285156 42.9375 -38.390625 37.78125 -38.390625 L 24.65625 -38.390625 L 24.65625 -11.046875 Z M 38.640625 -11.046875 "/></g></g><g style="fill:#e4007f;fill-opacity:1;"><g transform="translate(85.33148, 264.593154)"><path style="stroke:none" d="M 24.65625 -88.6875 L 24.65625 -11.53125 L 69.796875 -11.53125 L 69.796875 0 L 12.765625 0 L 12.765625 -88.6875 Z M 24.65625 -88.6875 "/></g></g><g style="fill:#e4007f;fill-opacity:1;"><g transform="translate(147.395818, 264.593154)"><path style="stroke:none" d="M 23.546875 -31.40625 C 23.546875 -27.476562 24.488281 -23.9375 26.375 -20.78125 C 28.257812 -17.632812 30.816406 -15.140625 34.046875 -13.296875 C 37.273438 -11.460938 40.851562 -10.546875 44.78125 -10.546875 C 48.863281 -10.546875 52.5625 -11.445312 55.875 -13.25 C 59.1875 -15.050781 61.78125 -17.546875 63.65625 -20.734375 C 65.539062 -23.921875 66.484375 -27.476562 66.484375 -31.40625 L 66.484375 -88.6875 L 78.140625 -88.6875 L 78.140625 -31.03125 C 78.140625 -24.738281 76.664062 -19.160156 73.71875 -14.296875 C 70.78125 -9.429688 66.773438 -5.664062 61.703125 -3 C 56.628906 -0.34375 50.988281 0.984375 44.78125 0.984375 C 38.644531 0.984375 33.039062 -0.34375 27.96875 -3 C 22.894531 -5.664062 18.90625 -9.429688 16 -14.296875 C 13.101562 -19.160156 11.65625 -24.738281 11.65625 -31.03125 L 11.65625 -88.6875 L 23.546875 -88.6875 Z M 23.546875 -31.40625 "/></g></g><g style="fill:#e4007f;fill-opacity:1;"><g transform="translate(222.952773, 264.593154)"><path style="stroke:none" d="M 58.640625 -72.859375 C 55.453125 -74.578125 52.054688 -75.96875 48.453125 -77.03125 C 44.859375 -78.09375 41.46875 -78.625 38.28125 -78.625 C 33.445312 -78.625 29.617188 -77.539062 26.796875 -75.375 C 23.984375 -73.207031 22.578125 -70.242188 22.578125 -66.484375 C 22.578125 -62.804688 24.234375 -59.800781 27.546875 -57.46875 C 30.859375 -55.132812 35.578125 -52.828125 41.703125 -50.546875 C 46.285156 -48.910156 50.148438 -47.128906 53.296875 -45.203125 C 56.453125 -43.285156 59.070312 -40.628906 61.15625 -37.234375 C 63.238281 -33.835938 64.28125 -29.519531 64.28125 -24.28125 C 64.28125 -19.539062 63.09375 -15.25 60.71875 -11.40625 C 58.351562 -7.5625 54.984375 -4.535156 50.609375 -2.328125 C 46.234375 -0.117188 41.097656 0.984375 35.203125 0.984375 C 29.722656 0.984375 24.445312 0.101562 19.375 -1.65625 C 14.3125 -3.414062 9.859375 -5.644531 6.015625 -8.34375 L 11.28125 -17.78125 C 14.3125 -15.5 17.953125 -13.554688 22.203125 -11.953125 C 26.453125 -10.359375 30.421875 -9.5625 34.109375 -9.5625 C 38.847656 -9.5625 42.992188 -10.785156 46.546875 -13.234375 C 50.109375 -15.691406 51.890625 -19.335938 51.890625 -24.171875 C 51.890625 -28.253906 50.394531 -31.5 47.40625 -33.90625 C 44.425781 -36.320312 40.238281 -38.597656 34.84375 -40.734375 C 29.851562 -42.609375 25.703125 -44.445312 22.390625 -46.25 C 19.078125 -48.050781 16.234375 -50.523438 13.859375 -53.671875 C 11.484375 -56.816406 10.296875 -60.757812 10.296875 -65.5 C 10.296875 -72.457031 12.726562 -78.082031 17.59375 -82.375 C 22.46875 -86.664062 28.789062 -88.9375 36.5625 -89.1875 C 46.125 -89.1875 54.992188 -86.8125 63.171875 -82.0625 Z M 58.640625 -72.859375 "/></g></g><g style="fill:#e4007f;fill-opacity:1;"><g transform="translate(280.110697, 264.593154)"><path style="stroke:none" d="M 83.046875 0 L 71.15625 0 L 71.15625 -38.890625 L 24.65625 -38.890625 L 24.65625 0 L 12.765625 0 L 12.765625 -88.6875 L 24.65625 -88.6875 L 24.65625 -50.296875 L 71.15625 -50.296875 L 71.15625 -88.6875 L 83.046875 -88.6875 Z M 83.046875 0 "/></g></g><g style="fill:#e4007f;fill-opacity:1;"><g transform="translate(361.677998, 264.593154)"><path style="stroke:none" d=""/></g></g><g style="fill:#e4007f;fill-opacity:1;"><g transform="translate(386.208361, 264.593154)"><path style="stroke:none" d="M 14.46875 -76.0625 L 23.3125 -59.625 L 16.0625 -59.625 L 1.71875 -76.0625 Z M 14.46875 -76.0625 "/></g></g><g style="fill:#e4007f;fill-opacity:1;"><g transform="translate(405.587006, 264.593154)"><path style="stroke:none" d="M 90.046875 -88.6875 L 90.046875 2.9375 L 89.671875 2.9375 L 24.53125 -63.171875 L 24.78125 0 L 12.765625 0 L 12.765625 -91.390625 L 13.375 -91.390625 L 78.390625 -24.53125 L 78.140625 -88.6875 Z M 90.046875 -88.6875 "/></g></g><g style="fill:#e4007f;fill-opacity:1;"><g transform="translate(494.145913, 264.593154)"><path style="stroke:none" d=""/></g></g><g style="fill:#e4007f;fill-opacity:1;"><g transform="translate(518.681952, 264.593154)"><path style="stroke:none" d="M 52.265625 -46 C 57.328125 -44.039062 61.332031 -41.238281 64.28125 -37.59375 C 67.226562 -33.957031 68.703125 -29.726562 68.703125 -24.90625 C 68.703125 -19.257812 67.332031 -14.578125 64.59375 -10.859375 C 61.851562 -7.140625 58.253906 -4.398438 53.796875 -2.640625 C 49.335938 -0.878906 44.445312 0 39.125 0 L 12.765625 0 L 12.765625 -88.6875 L 35.703125 -88.6875 C 44.773438 -88.6875 51.804688 -86.828125 56.796875 -83.109375 C 61.785156 -79.390625 64.28125 -73.804688 64.28125 -66.359375 C 64.28125 -61.703125 63.238281 -57.632812 61.15625 -54.15625 C 59.070312 -50.6875 56.109375 -47.96875 52.265625 -46 Z M 24.65625 -49.921875 L 38.15625 -49.921875 C 42.726562 -49.921875 46.179688 -51.226562 48.515625 -53.84375 C 50.847656 -56.46875 52.015625 -59.820312 52.015625 -63.90625 C 52.015625 -68.40625 50.625 -71.757812 47.84375 -73.96875 C 45.0625 -76.175781 41.175781 -77.28125 36.1875 -77.28125 L 24.65625 -77.28125 Z M 38.640625 -11.046875 C 43.796875 -11.046875 48.046875 -12.207031 51.390625 -14.53125 C 54.742188 -16.863281 56.421875 -20.28125 56.421875 -24.78125 C 56.421875 -29.4375 54.601562 -32.867188 50.96875 -35.078125 C 47.332031 -37.285156 42.9375 -38.390625 37.78125 -38.390625 L 24.65625 -38.390625 L 24.65625 -11.046875 Z M 38.640625 -11.046875 "/></g></g><g style="fill:#e4007f;fill-opacity:1;"><g transform="translate(580.378317, 264.593154)"><path style="stroke:none" d="M 24.65625 -88.6875 L 24.65625 -11.53125 L 69.796875 -11.53125 L 69.796875 0 L 12.765625 0 L 12.765625 -88.6875 Z M 24.65625 -88.6875 "/></g></g><g style="fill:#e4007f;fill-opacity:1;"><g transform="translate(640.847944, 264.593154)"><path style="stroke:none" d="M 7.234375 -44.28125 C 7.234375 -52.375 9.273438 -59.894531 13.359375 -66.84375 C 17.453125 -73.800781 22.953125 -79.34375 29.859375 -83.46875 C 36.773438 -87.601562 44.320312 -89.671875 52.5 -89.671875 C 60.59375 -89.671875 68.113281 -87.601562 75.0625 -83.46875 C 82.019531 -79.34375 87.5625 -73.800781 91.6875 -66.84375 C 95.820312 -59.894531 97.890625 -52.375 97.890625 -44.28125 C 97.890625 -36.101562 95.84375 -28.535156 91.75 -21.578125 C 87.664062 -14.628906 82.125 -9.128906 75.125 -5.078125 C 68.132812 -1.035156 60.59375 0.984375 52.5 0.984375 C 44.320312 0.984375 36.753906 -1.019531 29.796875 -5.03125 C 22.847656 -9.039062 17.347656 -14.5 13.296875 -21.40625 C 9.253906 -28.3125 7.234375 -35.9375 7.234375 -44.28125 Z M 19.5 -44.15625 C 19.5 -38.101562 20.972656 -32.5 23.921875 -27.34375 C 26.867188 -22.195312 30.894531 -18.109375 36 -15.078125 C 41.113281 -12.054688 46.695312 -10.546875 52.75 -10.546875 C 58.800781 -10.546875 64.34375 -12.035156 69.375 -15.015625 C 74.40625 -18.003906 78.367188 -22.09375 81.265625 -27.28125 C 84.171875 -32.476562 85.625 -38.144531 85.625 -44.28125 C 85.625 -50.414062 84.148438 -56.097656 81.203125 -61.328125 C 78.265625 -66.566406 74.257812 -70.695312 69.1875 -73.71875 C 64.113281 -76.75 58.550781 -78.265625 52.5 -78.265625 C 46.445312 -78.265625 40.882812 -76.726562 35.8125 -73.65625 C 30.75 -70.59375 26.765625 -66.441406 23.859375 -61.203125 C 20.953125 -55.972656 19.5 -50.289062 19.5 -44.15625 Z M 19.5 -44.15625 "/></g></g><g style="fill:#e4007f;fill-opacity:1;"><g transform="translate(731.737417, 264.593154)"><path style="stroke:none" d="M 7.234375 -44.28125 C 7.234375 -52.375 9.273438 -59.894531 13.359375 -66.84375 C 17.453125 -73.800781 22.953125 -79.34375 29.859375 -83.46875 C 36.773438 -87.601562 44.320312 -89.671875 52.5 -89.671875 C 60.59375 -89.671875 68.113281 -87.601562 75.0625 -83.46875 C 82.019531 -79.34375 87.5625 -73.800781 91.6875 -66.84375 C 95.820312 -59.894531 97.890625 -52.375 97.890625 -44.28125 C 97.890625 -36.101562 95.84375 -28.535156 91.75 -21.578125 C 87.664062 -14.628906 82.125 -9.128906 75.125 -5.078125 C 68.132812 -1.035156 60.59375 0.984375 52.5 0.984375 C 44.320312 0.984375 36.753906 -1.019531 29.796875 -5.03125 C 22.847656 -9.039062 17.347656 -14.5 13.296875 -21.40625 C 9.253906 -28.3125 7.234375 -35.9375 7.234375 -44.28125 Z M 19.5 -44.15625 C 19.5 -38.101562 20.972656 -32.5 23.921875 -27.34375 C 26.867188 -22.195312 30.894531 -18.109375 36 -15.078125 C 41.113281 -12.054688 46.695312 -10.546875 52.75 -10.546875 C 58.800781 -10.546875 64.34375 -12.035156 69.375 -15.015625 C 74.40625 -18.003906 78.367188 -22.09375 81.265625 -27.28125 C 84.171875 -32.476562 85.625 -38.144531 85.625 -44.28125 C 85.625 -50.414062 84.148438 -56.097656 81.203125 -61.328125 C 78.265625 -66.566406 74.257812 -70.695312 69.1875 -73.71875 C 64.113281 -76.75 58.550781 -78.265625 52.5 -78.265625 C 46.445312 -78.265625 40.882812 -76.726562 35.8125 -73.65625 C 30.75 -70.59375 26.765625 -66.441406 23.859375 -61.203125 C 20.953125 -55.972656 19.5 -50.289062 19.5 -44.15625 Z M 19.5 -44.15625 "/></g></g><g style="fill:#e4007f;fill-opacity:1;"><g transform="translate(822.626868, 264.593154)"><path style="stroke:none" d="M 100.953125 -91.515625 L 100.953125 0 L 89.1875 0 L 89.1875 -57.40625 L 56.546875 -11.15625 L 56.3125 -11.15625 L 24.28125 -55.8125 L 24.28125 0 L 12.765625 0 L 12.765625 -91.515625 L 12.875 -91.515625 L 56.546875 -29.6875 L 100.84375 -91.515625 Z M 100.953125 -91.515625 "/></g></g><g style="fill:#5271ff;fill-opacity:1;"><g transform="translate(398.417741, 306.318111)"><path style="stroke:none" d="M 31.15625 -27.984375 L 31.15625 0 L 25.859375 0 L 25.859375 -12.828125 L 17.09375 -0.359375 L 17.03125 -0.359375 L 8.578125 -12.015625 L 8.578125 0 L 3.46875 0 L 3.46875 -27.984375 L 3.5 -27.984375 L 17.140625 -8.65625 L 31.09375 -27.984375 Z M 31.15625 -27.984375 "/></g></g><g style="fill:#5271ff;fill-opacity:1;"><g transform="translate(433.034525, 306.318111)"><path style="stroke:none" d="M 19.796875 -15.96875 L 19.796875 0 L 14.6875 0 L 14.6875 -1.96875 C 13.15625 -0.363281 11.378906 0.4375 9.359375 0.4375 C 6.992188 0.4375 5.070312 -0.265625 3.59375 -1.671875 C 2.125 -3.085938 1.390625 -5.1875 1.390625 -7.96875 C 1.390625 -9.71875 1.75 -11.253906 2.46875 -12.578125 C 3.1875 -13.910156 4.140625 -14.941406 5.328125 -15.671875 C 6.523438 -16.398438 7.804688 -16.765625 9.171875 -16.765625 C 10.578125 -16.765625 11.691406 -16.550781 12.515625 -16.125 C 13.347656 -15.695312 14.082031 -15.09375 14.71875 -14.3125 L 15.046875 -15.96875 Z M 10.8125 -3.71875 C 12.59375 -3.71875 13.882812 -4.523438 14.6875 -6.140625 L 14.6875 -10.046875 C 14.394531 -10.828125 13.890625 -11.445312 13.171875 -11.90625 C 12.453125 -12.375 11.601562 -12.609375 10.625 -12.609375 C 9.507812 -12.609375 8.554688 -12.191406 7.765625 -11.359375 C 6.972656 -10.535156 6.578125 -9.488281 6.578125 -8.21875 C 6.578125 -7.394531 6.769531 -6.632812 7.15625 -5.9375 C 7.550781 -5.238281 8.070312 -4.691406 8.71875 -4.296875 C 9.363281 -3.910156 10.0625 -3.71875 10.8125 -3.71875 Z M 10.8125 -3.71875 "/></g></g><g style="fill:#5271ff;fill-opacity:1;"><g transform="translate(455.455101, 306.318111)"><path style="stroke:none" d="M 7.640625 -12.3125 C 8.078125 -13.164062 8.675781 -13.929688 9.4375 -14.609375 C 10.207031 -15.296875 10.992188 -15.828125 11.796875 -16.203125 C 12.597656 -16.578125 13.234375 -16.765625 13.703125 -16.765625 L 13.4375 -11.65625 C 13.289062 -11.675781 13.085938 -11.6875 12.828125 -11.6875 C 11.796875 -11.6875 10.890625 -11.414062 10.109375 -10.875 C 9.335938 -10.34375 8.742188 -9.65625 8.328125 -8.8125 C 7.910156 -7.976562 7.703125 -7.125 7.703125 -6.25 L 7.703125 0 L 2.625 0 L 2.625 -15.96875 L 7.234375 -15.96875 Z M 7.640625 -12.3125 "/></g></g><g style="fill:#5271ff;fill-opacity:1;"><g transform="translate(470.42649, 306.318111)"><path style="stroke:none" d="M 7.75 -15.96875 L 7.75 0 L 2.625 0 L 2.625 -15.96875 Z M 2.53125 -21.625 C 2.53125 -22.351562 2.8125 -22.96875 3.375 -23.46875 C 3.945312 -23.96875 4.601562 -24.21875 5.34375 -24.21875 C 6.039062 -24.21875 6.671875 -23.96875 7.234375 -23.46875 C 7.796875 -22.96875 8.078125 -22.351562 8.078125 -21.625 C 8.078125 -20.894531 7.796875 -20.285156 7.234375 -19.796875 C 6.671875 -19.304688 6.039062 -19.0625 5.34375 -19.0625 C 4.601562 -19.0625 3.945312 -19.304688 3.375 -19.796875 C 2.8125 -20.285156 2.53125 -20.894531 2.53125 -21.625 Z M 2.53125 -21.625 "/></g></g><g style="fill:#5271ff;fill-opacity:1;"><g transform="translate(480.796919, 306.318111)"><path style="stroke:none" d="M 16.1875 -1.421875 C 15.476562 -0.859375 14.59375 -0.40625 13.53125 -0.0625 C 12.476562 0.269531 11.4375 0.4375 10.40625 0.4375 C 7.632812 0.4375 5.4375 -0.3125 3.8125 -1.8125 C 2.195312 -3.3125 1.390625 -5.375 1.390625 -8 C 1.390625 -9.707031 1.785156 -11.195312 2.578125 -12.46875 C 3.367188 -13.75 4.410156 -14.722656 5.703125 -15.390625 C 6.992188 -16.066406 8.378906 -16.40625 9.859375 -16.40625 C 12.515625 -16.40625 14.671875 -15.695312 16.328125 -14.28125 L 13.84375 -11 C 12.800781 -11.820312 11.632812 -12.234375 10.34375 -12.234375 C 9.269531 -12.234375 8.359375 -11.832031 7.609375 -11.03125 C 6.867188 -10.226562 6.5 -9.21875 6.5 -8 C 6.5 -6.78125 6.898438 -5.757812 7.703125 -4.9375 C 8.503906 -4.125 9.550781 -3.71875 10.84375 -3.71875 C 11.96875 -3.71875 12.894531 -4.023438 13.625 -4.640625 Z M 16.1875 -1.421875 "/></g></g><g style="fill:#5271ff;fill-opacity:1;"><g transform="translate(498.287884, 306.318111)"><path style="stroke:none" d="M 13.734375 -16.734375 C 15.242188 -16.734375 16.503906 -16.28125 17.515625 -15.375 C 18.523438 -14.476562 19.039062 -13.335938 19.0625 -11.953125 L 19.0625 0 L 13.953125 0 L 13.953125 -10.046875 C 13.878906 -11.609375 13.097656 -12.390625 11.609375 -12.390625 C 10.441406 -12.390625 9.503906 -11.835938 8.796875 -10.734375 C 8.097656 -9.640625 7.75 -8.226562 7.75 -6.5 L 7.75 0 L 2.625 0 L 2.625 -28.828125 L 7.640625 -28.828125 L 7.640625 -13.4375 C 8.222656 -14.46875 9.03125 -15.273438 10.0625 -15.859375 C 11.09375 -16.441406 12.316406 -16.734375 13.734375 -16.734375 Z M 13.734375 -16.734375 "/></g></g><g style="fill:#5271ff;fill-opacity:1;"><g transform="translate(519.978144, 306.318111)"><path style="stroke:none" d="M 1.390625 -8.1875 C 1.390625 -9.8125 1.769531 -11.269531 2.53125 -12.5625 C 3.300781 -13.851562 4.382812 -14.867188 5.78125 -15.609375 C 7.1875 -16.359375 8.78125 -16.734375 10.5625 -16.734375 C 12.332031 -16.734375 13.894531 -16.359375 15.25 -15.609375 C 16.601562 -14.867188 17.644531 -13.851562 18.375 -12.5625 C 19.101562 -11.269531 19.46875 -9.8125 19.46875 -8.1875 C 19.46875 -6.550781 19.101562 -5.078125 18.375 -3.765625 C 17.644531 -2.453125 16.601562 -1.421875 15.25 -0.671875 C 13.894531 0.0664062 12.304688 0.4375 10.484375 0.4375 C 8.703125 0.4375 7.125 0.09375 5.75 -0.59375 C 4.375 -1.289062 3.300781 -2.285156 2.53125 -3.578125 C 1.769531 -4.867188 1.390625 -6.40625 1.390625 -8.1875 Z M 6.546875 -8.140625 C 6.546875 -6.878906 6.910156 -5.828125 7.640625 -4.984375 C 8.367188 -4.140625 9.289062 -3.71875 10.40625 -3.71875 C 11.582031 -3.71875 12.523438 -4.128906 13.234375 -4.953125 C 13.953125 -5.785156 14.3125 -6.847656 14.3125 -8.140625 C 14.3125 -9.429688 13.953125 -10.488281 13.234375 -11.3125 C 12.523438 -12.144531 11.582031 -12.5625 10.40625 -12.5625 C 9.289062 -12.5625 8.367188 -12.140625 7.640625 -11.296875 C 6.910156 -10.460938 6.546875 -9.410156 6.546875 -8.140625 Z M 6.546875 -8.140625 "/></g></g><g style="fill:#5271ff;fill-opacity:1;"><g transform="translate(540.828546, 306.318111)"><path style="stroke:none" d="M 7.75 -15.96875 L 7.75 0 L 2.625 0 L 2.625 -15.96875 Z M 2.53125 -21.625 C 2.53125 -22.351562 2.8125 -22.96875 3.375 -23.46875 C 3.945312 -23.96875 4.601562 -24.21875 5.34375 -24.21875 C 6.039062 -24.21875 6.671875 -23.96875 7.234375 -23.46875 C 7.796875 -22.96875 8.078125 -22.351562 8.078125 -21.625 C 8.078125 -20.894531 7.796875 -20.285156 7.234375 -19.796875 C 6.671875 -19.304688 6.039062 -19.0625 5.34375 -19.0625 C 4.601562 -19.0625 3.945312 -19.304688 3.375 -19.796875 C 2.8125 -20.285156 2.53125 -20.894531 2.53125 -21.625 Z M 2.53125 -21.625 "/></g></g><g style="fill:#5271ff;fill-opacity:1;"><g transform="translate(551.198975, 306.318111)"><path style="stroke:none" d="M 7.75 -15.96875 L 7.75 0 L 2.625 0 L 2.625 -15.96875 Z M 2.53125 -21.625 C 2.53125 -22.351562 2.8125 -22.96875 3.375 -23.46875 C 3.945312 -23.96875 4.601562 -24.21875 5.34375 -24.21875 C 6.039062 -24.21875 6.671875 -23.96875 7.234375 -23.46875 C 7.796875 -22.96875 8.078125 -22.351562 8.078125 -21.625 C 8.078125 -20.894531 7.796875 -20.285156 7.234375 -19.796875 C 6.671875 -19.304688 6.039062 -19.0625 5.34375 -19.0625 C 4.601562 -19.0625 3.945312 -19.304688 3.375 -19.796875 C 2.8125 -20.285156 2.53125 -20.894531 2.53125 -21.625 Z M 2.53125 -21.625 "/></g></g><g style="fill:#5271ff;fill-opacity:1;"><g transform="translate(561.577888, 306.318111)"><path style="stroke:none" d=""/></g></g></g></svg>