<svg xmlns="http://www.w3.org/2000/svg" xmlns:xlink="http://www.w3.org/1999/xlink" width="1500" zoomAndPan="magnify" viewBox="0 0 1125 374.999991" height="500" preserveAspectRatio="xMidYMid meet" version="1.2"><defs/><g id="33986c0f28"><g style="fill:#e4007f;fill-opacity:1;"><g transform="translate(12.268286, 224.624978)"><path style="stroke:none" d="M 63.796875 -56.15625 C 69.984375 -53.757812 74.875 -50.335938 78.46875 -45.890625 C 82.0625 -41.453125 83.859375 -36.289062 83.859375 -30.40625 C 83.859375 -23.507812 82.1875 -17.789062 78.84375 -13.25 C 75.5 -8.707031 71.101562 -5.363281 65.65625 -3.21875 C 60.21875 -1.070312 54.253906 0 47.765625 0 L 15.578125 0 L 15.578125 -108.265625 L 43.578125 -108.265625 C 54.660156 -108.265625 63.242188 -105.992188 69.328125 -101.453125 C 75.421875 -96.910156 78.46875 -90.097656 78.46875 -81.015625 C 78.46875 -75.328125 77.191406 -70.359375 74.640625 -66.109375 C 72.097656 -61.867188 68.484375 -58.550781 63.796875 -56.15625 Z M 30.09375 -60.953125 L 46.578125 -60.953125 C 52.160156 -60.953125 56.375 -62.546875 59.21875 -65.734375 C 62.070312 -68.929688 63.5 -73.023438 63.5 -78.015625 C 63.5 -83.503906 61.800781 -87.597656 58.40625 -90.296875 C 55.007812 -92.992188 50.265625 -94.34375 44.171875 -94.34375 L 30.09375 -94.34375 Z M 47.171875 -13.484375 C 53.460938 -13.484375 58.65625 -14.90625 62.75 -17.75 C 66.84375 -20.59375 68.890625 -24.757812 68.890625 -30.25 C 68.890625 -35.9375 66.664062 -40.128906 62.21875 -42.828125 C 57.78125 -45.523438 52.414062 -46.875 46.125 -46.875 L 30.09375 -46.875 L 30.09375 -13.484375 Z M 47.171875 -13.484375 "/></g></g><g style="fill:#e4007f;fill-opacity:1;"><g transform="translate(87.58724, 224.624978)"><path style="stroke:none" d="M 30.09375 -108.265625 L 30.09375 -14.078125 L 85.203125 -14.078125 L 85.203125 0 L 15.578125 0 L 15.578125 -108.265625 Z M 30.09375 -108.265625 "/></g></g><g style="fill:#e4007f;fill-opacity:1;"><g transform="translate(163.35542, 224.624978)"><path style="stroke:none" d="M 28.75 -38.34375 C 28.75 -33.539062 29.894531 -29.21875 32.1875 -25.375 C 34.488281 -21.539062 37.609375 -18.5 41.546875 -16.25 C 45.492188 -14 49.863281 -12.875 54.65625 -12.875 C 59.644531 -12.875 64.160156 -13.972656 68.203125 -16.171875 C 72.253906 -18.367188 75.425781 -21.410156 77.71875 -25.296875 C 80.019531 -29.191406 81.171875 -33.539062 81.171875 -38.34375 L 81.171875 -108.265625 L 95.390625 -108.265625 L 95.390625 -37.890625 C 95.390625 -30.203125 93.59375 -23.382812 90 -17.4375 C 86.40625 -11.5 81.515625 -6.90625 75.328125 -3.65625 C 69.140625 -0.414062 62.25 1.203125 54.65625 1.203125 C 47.164062 1.203125 40.328125 -0.414062 34.140625 -3.65625 C 27.953125 -6.90625 23.082031 -11.5 19.53125 -17.4375 C 15.988281 -23.382812 14.21875 -30.203125 14.21875 -37.890625 L 14.21875 -108.265625 L 28.75 -108.265625 Z M 28.75 -38.34375 "/></g></g><g style="fill:#e4007f;fill-opacity:1;"><g transform="translate(255.595251, 224.624978)"><path style="stroke:none" d="M 71.578125 -88.953125 C 67.679688 -91.046875 63.535156 -92.738281 59.140625 -94.03125 C 54.753906 -95.332031 50.613281 -95.984375 46.71875 -95.984375 C 40.832031 -95.984375 36.164062 -94.660156 32.71875 -92.015625 C 29.269531 -89.367188 27.546875 -85.753906 27.546875 -81.171875 C 27.546875 -76.671875 29.566406 -73 33.609375 -70.15625 C 37.660156 -67.3125 43.429688 -64.492188 50.921875 -61.703125 C 56.503906 -59.703125 61.21875 -57.523438 65.0625 -55.171875 C 68.90625 -52.828125 72.097656 -49.582031 74.640625 -45.4375 C 77.191406 -41.300781 78.46875 -36.039062 78.46875 -29.65625 C 78.46875 -23.863281 77.019531 -18.617188 74.125 -13.921875 C 71.226562 -9.234375 67.109375 -5.539062 61.765625 -2.84375 C 56.429688 -0.144531 50.171875 1.203125 42.984375 1.203125 C 36.285156 1.203125 29.84375 0.128906 23.65625 -2.015625 C 17.46875 -4.160156 12.03125 -6.882812 7.34375 -10.1875 L 13.78125 -21.71875 C 17.46875 -18.914062 21.90625 -16.539062 27.09375 -14.59375 C 32.289062 -12.65625 37.132812 -11.6875 41.625 -11.6875 C 47.414062 -11.6875 52.484375 -13.179688 56.828125 -16.171875 C 61.171875 -19.171875 63.34375 -23.613281 63.34375 -29.5 C 63.34375 -34.488281 61.519531 -38.457031 57.875 -41.40625 C 54.226562 -44.351562 49.113281 -47.125 42.53125 -49.71875 C 36.4375 -52.007812 31.367188 -54.253906 27.328125 -56.453125 C 23.285156 -58.648438 19.816406 -61.671875 16.921875 -65.515625 C 14.023438 -69.359375 12.578125 -74.175781 12.578125 -79.96875 C 12.578125 -88.445312 15.546875 -95.304688 21.484375 -100.546875 C 27.429688 -105.796875 35.144531 -108.570312 44.625 -108.875 C 56.300781 -108.875 67.132812 -105.976562 77.125 -100.1875 Z M 71.578125 -88.953125 "/></g></g><g style="fill:#e4007f;fill-opacity:1;"><g transform="translate(325.373719, 224.624978)"><path style="stroke:none" d="M 101.375 0 L 86.859375 0 L 86.859375 -47.46875 L 30.09375 -47.46875 L 30.09375 0 L 15.578125 0 L 15.578125 -108.265625 L 30.09375 -108.265625 L 30.09375 -61.390625 L 86.859375 -61.390625 L 86.859375 -108.265625 L 101.375 -108.265625 Z M 101.375 0 "/></g></g><g style="fill:#e4007f;fill-opacity:1;"><g transform="translate(424.950907, 224.624978)"><path style="stroke:none" d=""/></g></g><g style="fill:#e4007f;fill-opacity:1;"><g transform="translate(454.897987, 224.624978)"><path style="stroke:none" d="M 22.46875 -106.015625 C 20.664062 -104.023438 19.191406 -101.65625 18.046875 -98.90625 C 16.898438 -96.164062 16.328125 -93.445312 16.328125 -90.75 C 16.328125 -89.25 16.425781 -88.148438 16.625 -87.453125 L 5.390625 -86.40625 C 5.085938 -87.90625 4.9375 -89.351562 4.9375 -90.75 C 4.9375 -94.644531 5.910156 -98.238281 7.859375 -101.53125 C 9.804688 -104.820312 12.28125 -107.566406 15.28125 -109.765625 Z M 22.46875 -106.015625 "/></g></g><g style="fill:#e4007f;fill-opacity:1;"><g transform="translate(464.779594, 224.624978)"><path style="stroke:none" d="M 109.921875 -108.265625 L 109.921875 3.59375 L 109.46875 3.59375 L 29.953125 -77.125 L 30.25 0 L 15.578125 0 L 15.578125 -111.5625 L 16.328125 -111.5625 L 95.6875 -29.953125 L 95.390625 -108.265625 Z M 109.921875 -108.265625 "/></g></g><g style="fill:#e4007f;fill-opacity:1;"><g transform="translate(572.892104, 224.624978)"><path style="stroke:none" d=""/></g></g><g style="fill:#e4007f;fill-opacity:1;"><g transform="translate(602.839139, 224.624978)"><path style="stroke:none" d="M 63.796875 -56.15625 C 69.984375 -53.757812 74.875 -50.335938 78.46875 -45.890625 C 82.0625 -41.453125 83.859375 -36.289062 83.859375 -30.40625 C 83.859375 -23.507812 82.1875 -17.789062 78.84375 -13.25 C 75.5 -8.707031 71.101562 -5.363281 65.65625 -3.21875 C 60.21875 -1.070312 54.253906 0 47.765625 0 L 15.578125 0 L 15.578125 -108.265625 L 43.578125 -108.265625 C 54.660156 -108.265625 63.242188 -105.992188 69.328125 -101.453125 C 75.421875 -96.910156 78.46875 -90.097656 78.46875 -81.015625 C 78.46875 -75.328125 77.191406 -70.359375 74.640625 -66.109375 C 72.097656 -61.867188 68.484375 -58.550781 63.796875 -56.15625 Z M 30.09375 -60.953125 L 46.578125 -60.953125 C 52.160156 -60.953125 56.375 -62.546875 59.21875 -65.734375 C 62.070312 -68.929688 63.5 -73.023438 63.5 -78.015625 C 63.5 -83.503906 61.800781 -87.597656 58.40625 -90.296875 C 55.007812 -92.992188 50.265625 -94.34375 44.171875 -94.34375 L 30.09375 -94.34375 Z M 47.171875 -13.484375 C 53.460938 -13.484375 58.65625 -14.90625 62.75 -17.75 C 66.84375 -20.59375 68.890625 -24.757812 68.890625 -30.25 C 68.890625 -35.9375 66.664062 -40.128906 62.21875 -42.828125 C 57.78125 -45.523438 52.414062 -46.875 46.125 -46.875 L 30.09375 -46.875 L 30.09375 -13.484375 Z M 47.171875 -13.484375 "/></g></g><g style="fill:#e4007f;fill-opacity:1;"><g transform="translate(678.158104, 224.624978)"><path style="stroke:none" d="M 30.09375 -108.265625 L 30.09375 -14.078125 L 85.203125 -14.078125 L 85.203125 0 L 15.578125 0 L 15.578125 -108.265625 Z M 30.09375 -108.265625 "/></g></g><g style="fill:#e4007f;fill-opacity:1;"><g transform="translate(751.979541, 224.624978)"><path style="stroke:none" d="M 8.828125 -54.0625 C 8.828125 -63.945312 11.320312 -73.128906 16.3125 -81.609375 C 21.3125 -90.097656 28.03125 -96.863281 36.46875 -101.90625 C 44.90625 -106.945312 54.113281 -109.46875 64.09375 -109.46875 C 73.976562 -109.46875 83.160156 -106.945312 91.640625 -101.90625 C 100.128906 -96.863281 106.894531 -90.097656 111.9375 -81.609375 C 116.976562 -73.128906 119.5 -63.945312 119.5 -54.0625 C 119.5 -44.070312 117.003906 -34.832031 112.015625 -26.34375 C 107.023438 -17.863281 100.257812 -11.148438 91.71875 -6.203125 C 83.1875 -1.265625 73.976562 1.203125 64.09375 1.203125 C 54.113281 1.203125 44.878906 -1.242188 36.390625 -6.140625 C 27.898438 -11.035156 21.179688 -17.695312 16.234375 -26.125 C 11.296875 -34.5625 8.828125 -43.875 8.828125 -54.0625 Z M 23.8125 -53.90625 C 23.8125 -46.519531 25.609375 -39.679688 29.203125 -33.390625 C 32.796875 -27.097656 37.710938 -22.101562 43.953125 -18.40625 C 50.191406 -14.71875 57.003906 -12.875 64.390625 -12.875 C 71.773438 -12.875 78.535156 -14.695312 84.671875 -18.34375 C 90.816406 -21.988281 95.660156 -26.976562 99.203125 -33.3125 C 102.753906 -39.65625 104.53125 -46.570312 104.53125 -54.0625 C 104.53125 -61.550781 102.734375 -68.488281 99.140625 -74.875 C 95.546875 -81.257812 90.648438 -86.300781 84.453125 -90 C 78.265625 -93.695312 71.476562 -95.546875 64.09375 -95.546875 C 56.707031 -95.546875 49.914062 -93.671875 43.71875 -89.921875 C 37.53125 -86.179688 32.664062 -81.113281 29.125 -74.71875 C 25.582031 -68.332031 23.8125 -61.394531 23.8125 -53.90625 Z M 23.8125 -53.90625 "/></g></g><g style="fill:#e4007f;fill-opacity:1;"><g transform="translate(862.937144, 224.624978)"><path style="stroke:none" d="M 8.828125 -54.0625 C 8.828125 -63.945312 11.320312 -73.128906 16.3125 -81.609375 C 21.3125 -90.097656 28.03125 -96.863281 36.46875 -101.90625 C 44.90625 -106.945312 54.113281 -109.46875 64.09375 -109.46875 C 73.976562 -109.46875 83.160156 -106.945312 91.640625 -101.90625 C 100.128906 -96.863281 106.894531 -90.097656 111.9375 -81.609375 C 116.976562 -73.128906 119.5 -63.945312 119.5 -54.0625 C 119.5 -44.070312 117.003906 -34.832031 112.015625 -26.34375 C 107.023438 -17.863281 100.257812 -11.148438 91.71875 -6.203125 C 83.1875 -1.265625 73.976562 1.203125 64.09375 1.203125 C 54.113281 1.203125 44.878906 -1.242188 36.390625 -6.140625 C 27.898438 -11.035156 21.179688 -17.695312 16.234375 -26.125 C 11.296875 -34.5625 8.828125 -43.875 8.828125 -54.0625 Z M 23.8125 -53.90625 C 23.8125 -46.519531 25.609375 -39.679688 29.203125 -33.390625 C 32.796875 -27.097656 37.710938 -22.101562 43.953125 -18.40625 C 50.191406 -14.71875 57.003906 -12.875 64.390625 -12.875 C 71.773438 -12.875 78.535156 -14.695312 84.671875 -18.34375 C 90.816406 -21.988281 95.660156 -26.976562 99.203125 -33.3125 C 102.753906 -39.65625 104.53125 -46.570312 104.53125 -54.0625 C 104.53125 -61.550781 102.734375 -68.488281 99.140625 -74.875 C 95.546875 -81.257812 90.648438 -86.300781 84.453125 -90 C 78.265625 -93.695312 71.476562 -95.546875 64.09375 -95.546875 C 56.707031 -95.546875 49.914062 -93.671875 43.71875 -89.921875 C 37.53125 -86.179688 32.664062 -81.113281 29.125 -74.71875 C 25.582031 -68.332031 23.8125 -61.394531 23.8125 -53.90625 Z M 23.8125 -53.90625 "/></g></g><g style="fill:#e4007f;fill-opacity:1;"><g transform="translate(973.894748, 224.624978)"><path style="stroke:none" d="M 123.25 -111.71875 L 123.25 0 L 108.875 0 L 108.875 -70.078125 L 69.03125 -13.625 L 68.734375 -13.625 L 29.65625 -68.140625 L 29.65625 0 L 15.578125 0 L 15.578125 -111.71875 L 15.71875 -111.71875 L 69.03125 -36.234375 L 123.09375 -111.71875 Z M 123.25 -111.71875 "/></g></g><g style="fill:#5271ff;fill-opacity:1;"><g transform="translate(442.758459, 273.033838)"><path style="stroke:none" d="M 45.734375 -41.0625 L 45.734375 0 L 37.953125 0 L 37.953125 -18.8125 L 25.09375 -0.53125 L 24.984375 -0.53125 L 12.59375 -17.640625 L 12.59375 0 L 5.09375 0 L 5.09375 -41.0625 L 5.140625 -41.0625 L 25.140625 -12.703125 L 45.625 -41.0625 Z M 45.734375 -41.0625 "/></g></g><g style="fill:#5271ff;fill-opacity:1;"><g transform="translate(493.564168, 273.033838)"><path style="stroke:none" d="M 29.0625 -23.421875 L 29.0625 0 L 21.546875 0 L 21.546875 -2.890625 C 19.296875 -0.535156 16.6875 0.640625 13.71875 0.640625 C 10.257812 0.640625 7.445312 -0.394531 5.28125 -2.46875 C 3.113281 -4.539062 2.03125 -7.613281 2.03125 -11.6875 C 2.03125 -14.257812 2.554688 -16.519531 3.609375 -18.46875 C 4.671875 -20.414062 6.078125 -21.925781 7.828125 -23 C 9.578125 -24.070312 11.453125 -24.609375 13.453125 -24.609375 C 15.523438 -24.609375 17.164062 -24.296875 18.375 -23.671875 C 19.59375 -23.046875 20.671875 -22.160156 21.609375 -21.015625 L 22.09375 -23.421875 Z M 15.875 -5.46875 C 18.476562 -5.46875 20.367188 -6.644531 21.546875 -9 L 21.546875 -14.75 C 21.117188 -15.882812 20.378906 -16.789062 19.328125 -17.46875 C 18.273438 -18.15625 17.03125 -18.5 15.59375 -18.5 C 13.957031 -18.5 12.554688 -17.890625 11.390625 -16.671875 C 10.234375 -15.453125 9.65625 -13.914062 9.65625 -12.0625 C 9.65625 -10.84375 9.9375 -9.722656 10.5 -8.703125 C 11.070312 -7.691406 11.832031 -6.898438 12.78125 -6.328125 C 13.726562 -5.753906 14.757812 -5.46875 15.875 -5.46875 Z M 15.875 -5.46875 "/></g></g><g style="fill:#5271ff;fill-opacity:1;"><g transform="translate(526.469976, 273.033838)"><path style="stroke:none" d="M 11.203125 -18.0625 C 11.847656 -19.3125 12.734375 -20.4375 13.859375 -21.4375 C 14.984375 -22.4375 16.132812 -23.210938 17.3125 -23.765625 C 18.488281 -24.328125 19.421875 -24.609375 20.109375 -24.609375 L 19.734375 -17.09375 C 19.515625 -17.132812 19.207031 -17.15625 18.8125 -17.15625 C 17.3125 -17.15625 15.988281 -16.757812 14.84375 -15.96875 C 13.707031 -15.1875 12.832031 -14.175781 12.21875 -12.9375 C 11.613281 -11.707031 11.3125 -10.453125 11.3125 -9.171875 L 11.3125 0 L 3.859375 0 L 3.859375 -23.421875 L 10.609375 -23.421875 Z M 11.203125 -18.0625 "/></g></g><g style="fill:#5271ff;fill-opacity:1;"><g transform="translate(548.442901, 273.033838)"><path style="stroke:none" d="M 11.359375 -23.421875 L 11.359375 0 L 3.859375 0 L 3.859375 -23.421875 Z M 3.703125 -31.734375 C 3.703125 -32.804688 4.117188 -33.707031 4.953125 -34.4375 C 5.796875 -35.164062 6.753906 -35.53125 7.828125 -35.53125 C 8.859375 -35.53125 9.785156 -35.164062 10.609375 -34.4375 C 11.429688 -33.707031 11.84375 -32.804688 11.84375 -31.734375 C 11.84375 -30.660156 11.429688 -29.765625 10.609375 -29.046875 C 9.785156 -28.335938 8.859375 -27.984375 7.828125 -27.984375 C 6.753906 -27.984375 5.796875 -28.335938 4.953125 -29.046875 C 4.117188 -29.765625 3.703125 -30.660156 3.703125 -31.734375 Z M 3.703125 -31.734375 "/></g></g><g style="fill:#5271ff;fill-opacity:1;"><g transform="translate(563.663177, 273.033838)"><path style="stroke:none" d="M 23.75 -2.09375 C 22.707031 -1.269531 21.410156 -0.609375 19.859375 -0.109375 C 18.304688 0.390625 16.78125 0.640625 15.28125 0.640625 C 11.207031 0.640625 7.976562 -0.457031 5.59375 -2.65625 C 3.21875 -4.851562 2.03125 -7.878906 2.03125 -11.734375 C 2.03125 -14.242188 2.609375 -16.4375 3.765625 -18.3125 C 4.929688 -20.1875 6.460938 -21.613281 8.359375 -22.59375 C 10.253906 -23.582031 12.289062 -24.078125 14.46875 -24.078125 C 18.363281 -24.078125 21.53125 -23.039062 23.96875 -20.96875 L 20.3125 -16.140625 C 18.78125 -17.347656 17.066406 -17.953125 15.171875 -17.953125 C 13.597656 -17.953125 12.265625 -17.363281 11.171875 -16.1875 C 10.085938 -15.007812 9.546875 -13.523438 9.546875 -11.734375 C 9.546875 -9.953125 10.132812 -8.460938 11.3125 -7.265625 C 12.488281 -6.066406 14.023438 -5.46875 15.921875 -5.46875 C 17.566406 -5.46875 18.925781 -5.914062 20 -6.8125 Z M 23.75 -2.09375 "/></g></g><g style="fill:#5271ff;fill-opacity:1;"><g transform="translate(589.333987, 273.033838)"><path style="stroke:none" d="M 20.15625 -24.546875 C 22.375 -24.546875 24.222656 -23.882812 25.703125 -22.5625 C 27.191406 -21.25 27.953125 -19.570312 27.984375 -17.53125 L 27.984375 0 L 20.484375 0 L 20.484375 -14.75 C 20.367188 -17.03125 19.222656 -18.171875 17.046875 -18.171875 C 15.328125 -18.171875 13.945312 -17.363281 12.90625 -15.75 C 11.875 -14.144531 11.359375 -12.078125 11.359375 -9.546875 L 11.359375 0 L 3.859375 0 L 3.859375 -42.296875 L 11.203125 -42.296875 L 11.203125 -19.734375 C 12.054688 -21.234375 13.242188 -22.410156 14.765625 -23.265625 C 16.285156 -24.117188 18.082031 -24.546875 20.15625 -24.546875 Z M 20.15625 -24.546875 "/></g></g><g style="fill:#5271ff;fill-opacity:1;"><g transform="translate(621.167939, 273.033838)"><path style="stroke:none" d="M 2.03125 -12.015625 C 2.03125 -14.398438 2.59375 -16.539062 3.71875 -18.4375 C 4.851562 -20.332031 6.445312 -21.820312 8.5 -22.90625 C 10.550781 -24 12.882812 -24.546875 15.5 -24.546875 C 18.101562 -24.546875 20.394531 -24 22.375 -22.90625 C 24.363281 -21.820312 25.894531 -20.332031 26.96875 -18.4375 C 28.039062 -16.539062 28.578125 -14.398438 28.578125 -12.015625 C 28.578125 -9.617188 28.039062 -7.453125 26.96875 -5.515625 C 25.894531 -3.585938 24.363281 -2.078125 22.375 -0.984375 C 20.394531 0.0976562 18.066406 0.640625 15.390625 0.640625 C 12.773438 0.640625 10.457031 0.132812 8.4375 -0.875 C 6.425781 -1.894531 4.851562 -3.351562 3.71875 -5.25 C 2.59375 -7.144531 2.03125 -9.398438 2.03125 -12.015625 Z M 9.59375 -11.953125 C 9.59375 -10.097656 10.128906 -8.550781 11.203125 -7.3125 C 12.273438 -6.082031 13.632812 -5.46875 15.28125 -5.46875 C 17 -5.46875 18.382812 -6.070312 19.4375 -7.28125 C 20.488281 -8.5 21.015625 -10.054688 21.015625 -11.953125 C 21.015625 -13.847656 20.488281 -15.398438 19.4375 -16.609375 C 18.382812 -17.828125 17 -18.4375 15.28125 -18.4375 C 13.632812 -18.4375 12.273438 -17.820312 11.203125 -16.59375 C 10.128906 -15.363281 9.59375 -13.816406 9.59375 -11.953125 Z M 9.59375 -11.953125 "/></g></g><g style="fill:#5271ff;fill-opacity:1;"><g transform="translate(651.769262, 273.033838)"><path style="stroke:none" d="M 11.359375 -23.421875 L 11.359375 0 L 3.859375 0 L 3.859375 -23.421875 Z M 3.703125 -31.734375 C 3.703125 -32.804688 4.117188 -33.707031 4.953125 -34.4375 C 5.796875 -35.164062 6.753906 -35.53125 7.828125 -35.53125 C 8.859375 -35.53125 9.785156 -35.164062 10.609375 -34.4375 C 11.429688 -33.707031 11.84375 -32.804688 11.84375 -31.734375 C 11.84375 -30.660156 11.429688 -29.765625 10.609375 -29.046875 C 9.785156 -28.335938 8.859375 -27.984375 7.828125 -27.984375 C 6.753906 -27.984375 5.796875 -28.335938 4.953125 -29.046875 C 4.117188 -29.765625 3.703125 -30.660156 3.703125 -31.734375 Z M 3.703125 -31.734375 "/></g></g><g style="fill:#5271ff;fill-opacity:1;"><g transform="translate(666.989538, 273.033838)"><path style="stroke:none" d="M 11.359375 -23.421875 L 11.359375 0 L 3.859375 0 L 3.859375 -23.421875 Z M 3.703125 -31.734375 C 3.703125 -32.804688 4.117188 -33.707031 4.953125 -34.4375 C 5.796875 -35.164062 6.753906 -35.53125 7.828125 -35.53125 C 8.859375 -35.53125 9.785156 -35.164062 10.609375 -34.4375 C 11.429688 -33.707031 11.84375 -32.804688 11.84375 -31.734375 C 11.84375 -30.660156 11.429688 -29.765625 10.609375 -29.046875 C 9.785156 -28.335938 8.859375 -27.984375 7.828125 -27.984375 C 6.753906 -27.984375 5.796875 -28.335938 4.953125 -29.046875 C 4.117188 -29.765625 3.703125 -30.660156 3.703125 -31.734375 Z M 3.703125 -31.734375 "/></g></g><g style="fill:#5271ff;fill-opacity:1;"><g transform="translate(682.222266, 273.033838)"><path style="stroke:none" d=""/></g></g></g></svg>